<?xml version="1.0" encoding="utf-8"?>
<!-- Generator: Adobe Illustrator 16.0.0, SVG Export Plug-In . SVG Version: 6.00 Build 0)  -->
<!DOCTYPE svg PUBLIC "-//W3C//DTD SVG 1.1//EN" "http://www.w3.org/Graphics/SVG/1.1/DTD/svg11.dtd">
<svg version="1.1" id="Layer_1" xmlns="http://www.w3.org/2000/svg" xmlns:xlink="http://www.w3.org/1999/xlink" x="0px" y="0px"
	 width="300px" height="150px" viewBox="0 0 300 150" enable-background="new 0 0 300 150" xml:space="preserve">
<linearGradient id="SVGID_1_" gradientUnits="userSpaceOnUse" x1="70.8169" y1="37.3857" x2="36.3197" y2="97.1366">
	<stop  offset="0" style="stop-color:#00AEEF"/>
	<stop  offset="0.1332" style="stop-color:#0098DC"/>
	<stop  offset="0.374" style="stop-color:#0076BF"/>
	<stop  offset="0.5897" style="stop-color:#005BAB"/>
	<stop  offset="0.7725" style="stop-color:#19459D"/>
	<stop  offset="0.9151" style="stop-color:#2B3695"/>
	<stop  offset="1" style="stop-color:#2E3192"/>
</linearGradient>
<path fill="url(#SVGID_1_)" d="M9.376,62.653c4.779-5.409,12.032-11.608,21.342-15.826c-4.878,5.41-7.849,12.575-7.849,20.433
	c0,7.859,2.971,15.022,7.849,20.433c-9.311-4.218-16.563-10.415-21.342-15.825C7.02,69.201,7.02,65.321,9.376,62.653z M5.564,59.285
	c8.667-9.813,25.142-22.31,47.374-22.542c0.15-0.002,0.302-0.004,0.453-0.004h0.074h0.103c22.55,0,39.254,12.642,48.004,22.546
	c4.057,4.592,4.057,11.358,0,15.951c-8.75,9.903-25.455,22.547-48.004,22.547h-0.103h-0.074c-0.151,0-0.303,0-0.453-0.006
	c-22.232-0.23-38.707-12.727-47.374-22.541C1.508,70.644,1.507,63.877,5.564,59.285z M53.463,41.826
	c-0.154,0-0.308,0.001-0.462,0.002c-13.867,0.208-25.045,11.515-25.045,25.432s11.178,25.224,25.045,25.433
	c0.154,0.003,0.308,0.003,0.462,0.003c14.014-0.04,25.363-11.411,25.363-25.436C78.827,53.238,67.478,41.865,53.463,41.826z
	 M83.914,67.261c0,7.988-3.07,15.262-8.093,20.701c9.598-4.22,17.06-10.566,21.94-16.094c2.357-2.667,2.357-6.547,0-9.215
	c-4.881-5.525-12.343-11.873-21.94-16.093C80.843,52,83.914,59.271,83.914,67.261z M53.569,82.522c8.427,0,15.26-6.834,15.26-15.262
	c0-2.355-0.534-4.587-1.488-6.579c-0.919,0.923-2.193,1.492-3.599,1.492c-2.809,0-5.087-2.277-5.087-5.087
	c0-1.405,0.571-2.679,1.493-3.599C58.156,52.534,55.925,52,53.569,52c-8.429,0-15.261,6.833-15.261,15.261
	S45.14,82.522,53.569,82.522z"/>
<text transform="matrix(1 0 0 1 119.4771 68.3696)" font-family="'Montserrat-Bold'" font-size="37.4175">Montreal</text>
<text transform="matrix(1 0 0 1 139.6128 97.7832)" font-family="'Bahnschrift'" font-size="21.5436">Eyewear Shop</text>
</svg>
