<?xml version="1.0" encoding="iso-8859-1"?>
<!-- Uploaded to: SVG Repo, www.svgrepo.com, Generator: SVG Repo Mixer Tools -->
<svg fill="#000000" height="800px" width="800px" version="1.1" id="Layer_1" xmlns="http://www.w3.org/2000/svg" xmlns:xlink="http://www.w3.org/1999/xlink" 
	 viewBox="0 0 512 512" xml:space="preserve">
<g>
	<g>
		<g>
			<path d="M128.455,177.617c-19.132-3.282-54.136-6.333-73.607,10.082c-8.441,7.118-12.904,17.222-12.904,29.222
				c0,12.912,1.351,46.148,13.861,75.823c14.36,34.06,39.014,52.064,71.298,52.064c72.537,0,96.004-72.925,96.004-108.241
				C223.11,208.222,191.263,188.388,128.455,177.617z M189.739,293.938c-14.794,23.158-35.867,34.899-62.634,34.899
				c-25.714,0-44.751-14.232-56.583-42.298c-11.698-27.748-12.607-60.303-12.607-69.62c0-7.347,2.365-12.912,7.229-17.013
				c6.952-5.862,19.292-8.909,34.864-8.909c7.854,0,16.531,0.776,25.75,2.357c51.721,8.869,81.384,24.619,81.384,43.211
				C207.14,250.468,202.583,273.834,189.739,293.938z"/>
			<path d="M494.154,145.814c-94.588-19.912-158.458,14.495-200.722,37.263c-15.742,8.481-29.339,15.804-37.432,15.804
				c-8.094,0-21.689-7.323-37.432-15.804c-42.264-22.768-106.132-57.174-200.722-37.263c-11.27,2.372-18.893,12.8-17.729,24.254
				l7.623,75.05c0.512,5.044,2.907,9.831,6.744,13.478c4.666,4.436,8.898,15.601,13.378,27.42
				c13.001,34.301,32.65,86.137,101.335,86.137c76.877,0,101.592-62.593,116.358-99.99c3.233-8.187,7.526-19.059,10.445-22.665
				c2.918,3.606,7.211,14.477,10.444,22.665c14.766,37.398,39.481,99.991,116.359,99.991c68.685,0,88.332-51.836,101.335-86.137
				c4.48-11.82,8.712-22.984,13.377-27.42c3.838-3.647,6.232-8.435,6.745-13.479l7.623-75.05
				C513.045,158.613,505.424,148.186,494.154,145.814z M495.996,168.455l-1.911,18.816h-16.064v15.969h14.442l-4.089,40.265
				c-0.127,1.249-0.787,2.499-1.86,3.519c-7.304,6.946-11.941,19.174-17.307,33.333c-12.805,33.784-28.742,75.828-86.401,75.828
				c-66.015,0-87.373-54.092-101.507-89.887c-7.973-20.193-13.241-33.532-25.297-33.532c-12.057,0-17.325,13.341-25.297,33.533
				c-14.133,35.794-35.491,89.886-101.506,89.886c-57.66,0-73.596-42.045-86.401-75.828c-5.368-14.159-10.002-26.389-17.309-33.334
				c-1.072-1.02-1.733-2.27-1.861-3.519l-4.089-40.265h14.443V187.27H17.914l-1.911-18.816c-0.336-3.312,1.869-6.328,5.131-7.014
				c88.872-18.709,149.645,14.031,189.86,35.694c19.091,10.284,32.884,17.714,45.005,17.714c12.122,0,25.915-7.43,45.005-17.715
				c40.217-21.664,100.992-54.402,189.86-35.695C494.126,162.127,496.332,165.142,495.996,168.455z"/>
			<path d="M461.676,188.011c-19.783-16.752-55.945-13.707-75.742-10.4c-64.392,10.756-97.042,30.591-97.042,58.955
				c0,35.316,24.042,108.241,98.358,108.241c33.02,0,58.256-17.979,72.979-51.994c12.857-29.703,14.246-62.969,14.246-75.893
				C474.473,205.098,470.048,195.101,461.676,188.011z M445.573,286.47c-12.17,28.113-31.793,42.369-58.324,42.369
				c-27.602,0-49.316-11.769-64.541-34.98c-13.173-20.084-17.847-43.414-17.847-57.29c0-18.572,30.509-34.32,83.703-43.204
				c9.504-1.587,18.437-2.366,26.527-2.366c16.269,0,29.118,3.15,36.264,9.203c4.812,4.074,7.15,9.543,7.15,16.722
				C458.504,226.228,457.571,258.751,445.573,286.47z"/>
		</g>
	</g>
</g>
</svg>